<svg xmlns="http://www.w3.org/2000/svg" viewBox="0 0 64 64">
<defs>
  <filter id="g"><feGaussianBlur stdDeviation="2.2" result="b"/><feMerge><feMergeNode in="b"/><feMergeNode in="SourceGraphic"/></feMerge></filter>
  <linearGradient id="a" x1="0" x2="1"><stop stop-color="#b8ff4b"/><stop offset="1" stop-color="#53ff2c"/></linearGradient>
</defs>
<circle cx="32" cy="32" r="28" fill="#07110b" stroke="#62ff31" stroke-width="2" filter="url(#g)"/>
<path d="M17 22c3-8 10-12 15-12s12 4 15 12c2 6 0 14-4 19-4 5-8 10-11 10s-7-5-11-10c-4-5-6-13-4-19z" fill="url(#a)"/>
<ellipse cx="25" cy="29" rx="6" ry="9" fill="#07110b" transform="rotate(-18 25 29)"/>
<ellipse cx="39" cy="29" rx="6" ry="9" fill="#07110b" transform="rotate(18 39 29)"/>
<path d="M26 43c4 2 8 2 12 0" stroke="#07110b" stroke-width="2" stroke-linecap="round" fill="none"/>
</svg>